<svg width="575" height="470" viewBox="0 0 575 470" fill="none" xmlns="http://www.w3.org/2000/svg">
<path fill-rule="evenodd" clip-rule="evenodd" d="M491.739 129.327L485.844 132.771C483.868 133.919 483.167 136.503 484.314 138.512L485.621 140.744C487.15 143.392 486.481 144.572 486.003 145.018C484.696 146.198 483.485 147.474 482.243 148.75C481.892 149.132 480.745 150.408 477.749 148.654L475.678 147.442C473.702 146.294 471.121 146.964 469.973 148.973L466.532 154.873C465.384 156.851 466.054 159.434 468.029 160.582L470.069 161.762C472.873 163.389 472.81 164.25 472.459 165.43C471.981 167.056 471.439 168.715 471.089 170.405C470.77 171.904 470.929 172.989 467.105 172.989H464.747C462.452 172.989 460.572 174.87 460.572 177.167V183.992C460.572 186.32 462.452 188.17 464.747 188.17H467.105C470.929 188.17 470.802 189.254 471.089 190.753C471.439 192.443 471.981 194.102 472.459 195.728C472.81 196.909 472.873 197.77 470.069 199.396L468.029 200.576C466.054 201.724 465.352 204.308 466.532 206.317L469.973 212.217C471.121 214.195 473.702 214.896 475.678 213.716L477.749 212.504C480.745 210.75 481.892 212.026 482.243 212.409C483.485 213.684 484.696 214.96 486.003 216.14C486.481 216.555 487.15 217.767 485.621 220.414L484.314 222.646C483.167 224.624 483.836 227.207 485.844 228.387L491.739 231.8C493.715 232.98 496.296 232.278 497.476 230.301L498.782 228.068C500.344 225.389 501.873 225.485 502.511 225.708C504.391 226.314 506.144 226.697 508.088 227.207C508.789 227.398 510 227.909 510 231.098V233.49C510 235.786 511.88 237.668 514.174 237.668H520.994C523.289 237.668 525.169 235.786 525.169 233.49V231.098C525.169 227.909 526.38 227.398 527.081 227.207C529.025 226.697 530.746 226.314 532.626 225.708C533.295 225.485 534.825 225.389 536.386 228.068L537.693 230.301C538.84 232.278 541.422 232.98 543.429 231.8L549.325 228.387C551.301 227.239 552.002 224.656 550.823 222.646L549.516 220.414C547.986 217.767 548.656 216.555 549.134 216.14C550.44 214.96 551.683 213.684 552.894 212.409C553.245 212.026 554.392 210.75 557.388 212.504L559.459 213.716C561.435 214.864 564.016 214.195 565.195 212.217L568.637 206.317C569.784 204.308 569.115 201.756 567.107 200.576L565.068 199.396C562.263 197.77 562.327 196.909 562.678 195.728C563.156 194.07 563.697 192.443 564.048 190.753C564.367 189.254 564.239 188.17 568.063 188.17H570.422C572.748 188.17 574.596 186.288 574.596 183.992V177.167C574.596 174.87 572.716 172.989 570.422 172.989H568.063C564.239 172.989 564.367 171.904 564.048 170.405C563.697 168.715 563.156 167.056 562.678 165.43C562.327 164.218 562.263 163.389 565.068 161.762L567.107 160.582C569.083 159.434 569.784 156.851 568.637 154.873L565.195 148.973C564.048 146.996 561.467 146.294 559.459 147.442L557.388 148.654C554.392 150.408 553.245 149.132 552.894 148.75C551.683 147.474 550.472 146.198 549.134 145.018C548.656 144.604 547.986 143.392 549.516 140.744L550.823 138.512C551.97 136.503 551.301 133.951 549.325 132.771L543.429 129.327C541.422 128.179 538.872 128.848 537.693 130.858L536.386 133.09C534.825 135.769 533.295 135.673 532.626 135.45C530.746 134.844 528.993 134.462 527.081 133.951C526.348 133.76 525.169 133.25 525.169 130.06V127.668C525.169 125.34 523.289 123.49 520.994 123.49H514.174C511.848 123.49 510 125.372 510 127.668V130.06C510 133.25 508.789 133.76 508.088 133.951C506.144 134.462 504.391 134.844 502.511 135.45C501.873 135.673 500.312 135.769 498.782 133.09L497.476 130.858C496.296 128.848 493.715 128.179 491.739 129.327ZM517.616 147.123C536.131 147.123 551.109 162.113 551.109 180.643C551.109 199.173 536.131 214.163 517.616 214.163C499.101 214.163 484.123 199.141 484.123 180.643C484.091 162.113 499.101 147.123 517.616 147.123Z" fill="#CCD4E1"/>
<path fill-rule="evenodd" clip-rule="evenodd" d="M469.941 77.2135C468.411 77.6281 466.818 76.7032 466.404 75.1723C465.989 73.6414 466.914 72.0468 468.443 71.6322C500.12 63.2123 528.865 66.593 554.615 81.6785C555.985 82.4759 556.463 84.2619 555.634 85.6333C554.838 87.0047 553.053 87.4512 551.683 86.6539C527.336 72.3657 500.088 69.2402 469.941 77.2135ZM536.004 88.0891C536.545 86.5901 535.781 84.9317 534.283 84.3895C527.431 81.9018 520.133 80.339 512.453 79.5417C504.837 78.7444 496.806 78.6487 488.329 79.0314C486.736 79.1271 485.493 80.4666 485.588 82.0613C485.684 83.6559 487.022 84.8998 488.616 84.836C496.774 84.4533 504.518 84.5489 511.848 85.3144" fill="#CCD4E1"/>
<path fill-rule="evenodd" clip-rule="evenodd" d="M5.75151 340.269C5.49656 338.674 3.9669 337.621 2.40536 337.908C0.811958 338.164 -0.239688 339.695 0.0471249 341.257C5.62404 373.597 20.6658 398.314 45.1086 415.441C46.4152 416.366 48.1998 416.047 49.124 414.739C50.0481 413.432 49.7295 411.614 48.391 410.721C25.2866 394.519 11.0416 371.046 5.75151 340.269ZM20.4108 354.142C23.4702 361.733 26.7844 368.717 30.5449 375.064C34.2734 381.315 38.4163 386.928 43.1965 391.776C44.3119 392.924 44.3119 394.742 43.1646 395.859C42.0174 396.975 40.2009 396.975 39.0855 395.827C33.9548 390.628 29.5251 384.664 25.5735 377.998C21.6537 371.396 18.2438 364.125 15.057 356.279C14.4515 354.812 15.1845 353.122 16.6504 352.516C18.1482 351.942 19.8053 352.643 20.4108 354.142Z" fill="#CCD4E1"/>
<path fill-rule="evenodd" clip-rule="evenodd" d="M112.034 21.5593L104.386 26.0244C101.805 27.5234 100.944 30.8722 102.442 33.4555L104.131 36.3578C106.107 39.7704 105.246 41.3332 104.641 41.9072C102.92 43.4381 101.359 45.0966 99.7651 46.7231C99.2871 47.2015 97.8212 48.86 93.9333 46.5956L91.2564 45.0328C88.675 43.5338 85.3289 44.3949 83.8311 47.0102L79.3696 54.6645C77.8718 57.2479 78.7641 60.5967 81.3454 62.0957L83.9904 63.6265C87.6234 65.7634 87.5278 66.8478 87.0816 68.3786C86.4443 70.5155 85.775 72.6523 85.297 74.853C84.8827 76.7985 85.0739 78.2018 80.1025 78.2018H77.0432C74.0476 78.2018 71.5938 80.6256 71.5938 83.6555V92.5218C71.5938 95.5198 74.0476 97.9437 77.0432 97.9437H80.0707C85.0421 97.9437 84.8509 99.347 85.2652 101.324C85.7113 103.525 86.4124 105.662 87.0498 107.767C87.4959 109.33 87.5915 110.414 83.9586 112.519L81.3135 114.05C78.7322 115.549 77.8399 118.898 79.3377 121.481L83.7992 129.135C85.297 131.719 88.6432 132.612 91.2245 131.113L93.9014 129.55C97.7893 127.285 99.2871 128.944 99.7333 129.422C101.327 131.081 102.888 132.739 104.609 134.27C105.215 134.812 106.075 136.375 104.099 139.788L102.41 142.69C100.912 145.273 101.773 148.622 104.354 150.121L112.002 154.586C114.584 156.085 117.93 155.224 119.428 152.609L121.117 149.706C123.124 146.23 125.132 146.358 125.961 146.645C128.415 147.41 130.645 147.92 133.163 148.59C134.087 148.845 135.649 149.483 135.649 153.629V156.755C135.649 159.753 138.071 162.177 141.098 162.177H149.957C152.953 162.177 155.407 159.753 155.407 156.755V153.629C155.407 149.483 156.968 148.813 157.893 148.59C160.41 147.92 162.673 147.41 165.127 146.645C165.955 146.39 167.963 146.23 169.97 149.706L171.66 152.609C173.157 155.192 176.503 156.085 179.085 154.586L186.733 150.121C189.314 148.622 190.175 145.273 188.677 142.69L186.988 139.788C184.98 136.375 185.873 134.812 186.478 134.27C188.199 132.739 189.761 131.081 191.354 129.422C191.832 128.944 193.298 127.285 197.186 129.55L199.863 131.113C202.444 132.612 205.79 131.719 207.288 129.135L211.75 121.481C213.247 118.898 212.355 115.549 209.774 114.05L207.129 112.519C203.496 110.414 203.591 109.298 204.037 107.767C204.675 105.63 205.344 103.525 205.822 101.324C206.236 99.3789 206.045 97.9437 211.017 97.9437H214.044C217.04 97.9437 219.462 95.5198 219.462 92.5218V83.6555C219.462 80.6575 217.04 78.2018 214.044 78.2018H211.017C206.045 78.2018 206.236 76.7985 205.822 74.853C205.376 72.6523 204.675 70.5155 204.037 68.3786C203.591 66.8478 203.496 65.7315 207.129 63.6265L209.774 62.0957C212.355 60.5967 213.247 57.2479 211.75 54.6645L207.288 47.0102C205.79 44.4268 202.444 43.5338 199.863 45.0328L197.186 46.5956C193.298 48.86 191.8 47.2015 191.354 46.7231C189.761 45.0647 188.199 43.4062 186.478 41.9072C185.873 41.3332 184.98 39.8023 186.988 36.3578L188.677 33.4555C190.175 30.8722 189.314 27.5234 186.733 26.0244L179.085 21.5593C176.503 20.0604 173.157 20.9534 171.66 23.5367L169.97 26.439C167.963 29.9154 165.955 29.7878 165.127 29.5327C162.673 28.7672 160.442 28.2569 157.893 27.5872C156.968 27.332 155.407 26.6623 155.407 22.5161V19.4225C155.407 16.4245 152.985 13.9688 149.957 13.9688H141.098C138.102 13.9688 135.649 16.3926 135.649 19.4225V22.5161C135.649 26.6623 134.087 27.332 133.163 27.5872C130.645 28.2569 128.383 28.7353 125.961 29.5327C125.132 29.7878 123.124 29.9473 121.117 26.439L119.428 23.5367C117.962 20.9534 114.616 20.0604 112.034 21.5593ZM145.591 53.2931C164.776 53.2931 180.328 68.857 180.328 88.0568C180.328 107.257 164.776 122.852 145.591 122.852C126.407 122.852 110.855 107.288 110.855 88.0568C110.823 68.8889 126.375 53.2931 145.591 53.2931ZM145.591 44.6182C169.588 44.6182 189.028 64.0731 189.028 88.0887C189.028 112.104 169.588 131.559 145.591 131.559C121.595 131.559 102.155 112.104 102.155 88.0887C102.155 64.0731 121.595 44.6182 145.591 44.6182Z" fill="#CCD4E1"/>
<path fill-rule="evenodd" clip-rule="evenodd" d="M527.274 325.438C527.402 324.992 527.083 324.513 526.637 324.418C526.159 324.322 525.712 324.609 525.617 325.056C524.183 331.211 524.119 337.526 525.681 344.096C527.242 350.634 530.429 357.395 535.592 364.412C535.878 364.795 536.388 364.89 536.803 364.603C537.185 364.316 537.281 363.806 536.994 363.391C531.991 356.534 528.867 349.996 527.37 343.681C525.84 337.398 525.936 331.339 527.274 325.438Z" fill="#1B2452"/>
<path fill-rule="evenodd" clip-rule="evenodd" d="M526.253 326.427C533.997 308.79 533.551 292.078 524.883 276.354C544.673 292.716 545.119 309.396 526.253 326.427Z" fill="#C2B5D9"/>
<path fill-rule="evenodd" clip-rule="evenodd" d="M524.915 276.354C533.583 292.078 534.029 308.79 526.285 326.427C508.439 312.713 530.715 297.851 524.915 276.354Z" fill="#9588C0"/>
<path fill-rule="evenodd" clip-rule="evenodd" d="M536.709 348.306C536.741 347.828 536.39 347.413 535.912 347.382C535.434 347.318 535.02 347.669 534.988 348.147C534.797 350.22 534.733 353.25 534.924 356.662C535.083 359.629 535.37 362.882 535.88 366.135C535.944 366.613 536.39 366.932 536.868 366.868C537.346 366.805 537.665 366.358 537.601 365.88C537.091 362.69 536.804 359.469 536.677 356.567C536.486 353.25 536.517 350.316 536.709 348.306Z" fill="#1B2452"/>
<path fill-rule="evenodd" clip-rule="evenodd" d="M535.656 349.933C527.466 335.007 533.361 320.878 553.406 307.61C542.826 322.983 536.899 337.08 535.656 349.933Z" fill="#9588C0"/>
<path fill-rule="evenodd" clip-rule="evenodd" d="M535.656 349.933C536.899 337.08 542.795 322.983 553.407 307.61C547.129 328.564 560.768 336.282 535.656 349.933Z" fill="#5A53A2"/>
<path fill-rule="evenodd" clip-rule="evenodd" d="M536.1 365.337C536.1 365.816 536.45 366.199 536.928 366.231C537.406 366.231 537.789 365.88 537.82 365.401C537.884 363.201 538.394 361 539.063 359.023C540.115 355.865 541.549 353.282 542.25 352.134C542.505 351.719 542.378 351.209 541.963 350.954C541.581 350.698 541.039 350.826 540.784 351.241C540.051 352.421 538.522 355.164 537.438 358.48C536.737 360.585 536.195 362.977 536.1 365.337Z" fill="#1B2452"/>
<path fill-rule="evenodd" clip-rule="evenodd" d="M559.684 353.792C554.521 365.72 543.431 351.208 539.447 353.6C540.626 350.889 542.315 348.976 544.164 348.019C549.613 345.18 554.17 355.131 559.684 353.792Z" fill="#9588C0"/>
<path fill-rule="evenodd" clip-rule="evenodd" d="M510.48 361.893V377.457C510.48 387.248 518.511 395.285 528.295 395.285H542.38C552.164 395.285 560.195 387.248 560.195 377.457V361.893H510.48Z" fill="#3F4979"/>
<path fill-rule="evenodd" clip-rule="evenodd" d="M515.516 389.831C539.831 397.645 551.527 386.897 549.2 361.86H560.195V377.424C560.195 387.215 552.164 395.253 542.38 395.253H528.295C523.291 395.284 518.766 393.18 515.516 389.831Z" fill="#1B2452"/>
<path fill-rule="evenodd" clip-rule="evenodd" d="M220.447 0H390.463C404.485 0 415.926 11.4816 415.926 25.4827V394.296C415.926 408.297 404.453 419.779 390.463 419.779H220.447C206.425 419.779 194.984 408.297 194.984 394.296V25.4827C194.953 11.4816 206.425 0 220.447 0Z" fill="#2B2870"/>
<path fill-rule="evenodd" clip-rule="evenodd" d="M220.449 3.63574H390.465C402.479 3.63574 412.295 13.4589 412.295 25.4826V394.296C412.295 406.32 402.479 416.143 390.465 416.143H220.449C208.435 416.143 198.619 406.32 198.619 394.296V25.4826C198.587 13.4589 208.435 3.63574 220.449 3.63574Z" fill="#30235B"/>
<path fill-rule="evenodd" clip-rule="evenodd" d="M220.447 12.5977H390.463C397.538 12.5977 403.338 18.4022 403.338 25.4825V394.296C403.338 401.376 397.538 407.181 390.463 407.181H220.447C213.372 407.181 207.572 401.376 207.572 394.296V25.4825C207.572 18.4022 213.34 12.5977 220.447 12.5977Z" fill="url(#paint0_linear_1457_404)"/>
<path fill-rule="evenodd" clip-rule="evenodd" d="M451.485 133.154C448.839 126.648 447.374 119.026 444.729 116.378C425.799 112.743 425.289 123.012 417.641 126.074C417.927 128.562 419.107 131.209 421.146 134.015C422.166 145.019 425.735 151.365 431.854 153.088C433.543 154.395 436.029 154.937 439.407 154.714C439.311 156.149 439.12 157.553 438.897 158.892C441.446 170.948 453.556 172.829 460.694 160.104C460.949 159.689 461.141 159.275 461.364 158.828C461.332 158.733 461.332 158.605 461.3 158.509C460.471 153.757 459.834 149.611 459.388 146.071C459.101 143.775 458.878 141.734 458.75 139.916C463.754 132.835 464.2 127.605 460.025 124.288C454.958 122.757 452.696 126.329 453.237 135.004C451.708 134.685 452.759 135.004 451.485 133.154Z" fill="#FAB688"/>
<path fill-rule="evenodd" clip-rule="evenodd" d="M417.61 126.105C425.259 123.012 425.768 112.774 444.73 116.41C447.375 119.057 448.841 126.679 451.486 133.186C452.761 135.035 451.709 134.716 453.175 135.035C452.633 126.36 454.896 122.756 459.963 124.319C464.138 127.636 463.691 132.835 458.688 139.947C458.816 141.765 459.039 143.806 459.326 146.102C473.762 128.146 467.261 107.671 456.011 102.313C458.529 102.185 461.206 102.791 464.042 104.067C459.58 99.6339 454.322 98.6452 448.267 101.133C448.427 97.497 447.917 94.9137 446.706 93.3828C446.77 95.8067 446.578 97.7203 446.1 99.1236C441.511 96.03 433.64 96.3489 426.119 100.495C416.431 105.917 407.221 116.952 402.76 114.751C404.831 124.255 411.205 129.327 417.61 126.105Z" fill="#2C2066"/>
<path fill-rule="evenodd" clip-rule="evenodd" d="M483.612 192.795C485.301 195.506 487.149 198.28 489.125 201.119C491.388 204.308 493.81 207.593 496.423 210.942C499.1 204.563 507.449 198.248 514.747 200.258C505.888 181.983 497.283 169.417 491.228 164.123C484.664 160.901 474.689 159.02 461.272 158.478C461.304 158.605 461.304 158.701 461.336 158.796C454.293 172.925 441.482 171.331 438.869 158.86C429.946 159.785 419.525 163.134 413.821 166.897C408.244 172.383 398.397 185.172 388.518 203.766C390.716 205.743 401.584 210.591 406.109 211.357C409.423 207.115 411.686 203.766 414.49 199.524C414.809 219.808 414.809 234.511 414.299 244.589C413.948 251.287 413.375 259.515 412.546 262.45C426.249 281.33 469.494 281.809 489.093 266.946C485.365 241.496 483.357 216.683 483.612 192.795Z" fill="url(#paint1_linear_1457_404)"/>
<path fill-rule="evenodd" clip-rule="evenodd" d="M483.001 211.165C474.206 209.315 467.736 208.454 456.328 204.435C455.69 200.8 449.253 193.209 446.289 189.095C440.457 189.924 446.448 197.228 446.162 198.663C441.828 198.057 439.82 196.59 438.29 195.346C432.14 193.081 429.909 205.137 435.263 209.889C438.322 212.632 446.671 215.311 450.782 215.279C465.155 222.04 473.664 225.868 484.276 229.408C485.582 229.854 486.857 230.237 488.1 230.652C505.691 236.105 517.61 236.679 523.824 232.406C525.194 223.093 517.578 206.317 514.742 200.289C504.64 197.61 498.107 207.051 496.481 210.718C497.119 212.217 498.075 213.653 499.286 215.088C496.003 214.035 492.211 213.142 487.941 212.217C486.315 211.835 484.69 211.516 483.001 211.165Z" fill="#FAB688"/>
<path fill-rule="evenodd" clip-rule="evenodd" d="M400.088 209.156C402.542 207.178 413.6 199.875 416.723 196.877C416.245 193.241 419.304 183.896 420.547 178.985C425.455 177.709 422.651 186.639 423.256 187.883C426.57 185.778 427.749 183.705 428.642 182.015C432.912 177.709 437.979 188.202 434.983 194.549C433.294 198.184 427.367 203.638 424.053 205.073C421.567 208.039 416.149 216.045 414.078 218.437C399.514 242.261 378.481 247.683 377.525 234.734C377.972 228.164 384.632 214.769 390.942 204.818C392.567 205.807 395.053 207.051 397.73 208.199C393.491 210.91 390.304 214.546 388.106 219.075C391.643 214.322 394.256 212.728 400.088 209.156Z" fill="#FAB688"/>
<path fill-rule="evenodd" clip-rule="evenodd" d="M501.526 213.94C500.347 212.186 499.295 210.463 498.371 208.741C498.02 209.379 497.734 210.049 497.511 210.687C498.18 212.249 499.168 213.748 500.474 215.215C505.414 216.842 509.111 218.883 511.373 222.041C510.226 218.437 506.943 215.726 501.526 213.94ZM397.732 208.167C393.493 210.878 390.306 214.514 388.107 219.043C391.645 214.322 394.258 212.728 400.058 209.124C399.293 208.837 398.496 208.486 397.732 208.167Z" fill="#ED7D57"/>
<path fill-rule="evenodd" clip-rule="evenodd" d="M428.641 181.983C432.912 177.677 437.979 188.17 434.983 194.517C434.887 194.708 434.792 194.932 434.664 195.123C432.975 198.089 428.992 201.98 425.869 204.021C425.518 204.244 425.199 204.436 424.881 204.627L425.263 211.102C425.327 212.409 426.474 213.493 427.781 213.493L442.249 213.462H443.205C440.369 212.473 437.724 211.165 436.258 209.858C432.051 206.126 432.529 197.866 435.907 195.601C436.831 194.995 437.947 194.804 439.285 195.314C439.986 195.888 440.815 196.494 441.898 197.068C442.791 197.515 443.874 197.93 445.244 198.249L444.926 192.922C444.703 192.157 444.639 191.423 444.798 190.817L444.735 189.605L444.033 177.327C443.97 176.019 442.822 174.935 441.516 174.935L425.582 174.966C424.275 174.966 423.256 176.051 423.319 177.358L423.893 187.405C426.697 185.459 427.813 183.546 428.641 181.983Z" fill="url(#paint2_linear_1457_404)"/>
<path fill-rule="evenodd" clip-rule="evenodd" d="M439.821 442.04C441.988 389.862 446.354 335.58 452.632 285.731C456.106 317.401 463.499 368.59 474.494 441.561C477.872 443.475 483.066 443.762 490.109 442.422C497.47 382.431 497.152 324.417 489.44 266.053L488.101 266.978C470.223 280.5 432.778 281.33 415.888 267.073C410.534 320.909 413.785 379.242 425.672 442.135C428.827 443.379 433.575 443.347 439.821 442.04Z" fill="#38308D"/>
<path fill-rule="evenodd" clip-rule="evenodd" d="M476.918 455.659C483.419 455.818 484.821 457.285 490.175 458.784C497.823 460.921 502.858 459.263 501.169 455.468C495.752 452.087 491.896 448.961 489.569 446.155C487.498 445.07 483.036 445.549 482.367 449.248C479.531 449.663 478.575 448.929 478.001 447.08C477.173 449.248 476.822 452.087 476.918 455.659ZM441.672 456.52C433.29 456.679 432.143 458.083 427.745 458.944C416.846 462.038 409.58 460.443 411.843 456.329C418.504 452.948 423.252 449.822 426.12 447.016C428.669 445.931 431.314 446.952 434.055 450.109C437.529 450.492 439.632 449.791 440.333 447.941C441.385 450.109 441.831 452.98 441.672 456.52Z" fill="#071023"/>
<path fill-rule="evenodd" clip-rule="evenodd" d="M427.936 442.582C427.968 444.017 427.808 445.388 427.426 446.632C429.561 446.345 431.792 447.493 434.054 450.108C437.241 450.459 439.281 449.885 440.109 448.386C439.599 446.441 439.313 444.431 439.185 442.358C434.501 443.22 430.74 443.283 427.936 442.582ZM478.032 442.614C478.064 444.208 478.064 445.675 478 447.079C478.574 448.928 479.53 449.662 482.366 449.247C483.004 445.899 486.7 445.197 488.931 445.867C488.836 444.846 488.804 443.825 488.836 442.837C484.438 443.475 480.837 443.379 478.032 442.614Z" fill="#FAB688"/>
<path fill-rule="evenodd" clip-rule="evenodd" d="M450.788 148.018C448.908 151.079 445.402 153.312 440.367 154.715C440.272 156.15 440.08 157.554 439.857 158.893C445.721 156.916 449.386 153.28 450.788 148.018Z" fill="#ED7D57"/>
<path fill-rule="evenodd" clip-rule="evenodd" d="M204.737 460.603C190.269 460.379 179.434 460.188 174.431 458.625C169.045 456.935 170.16 453.618 173.251 448.356C186.891 454.639 183.258 447.048 189.664 448.037C194.157 451.641 200.785 454.064 209.581 455.308C213.31 458.019 211.78 460.475 204.737 460.603Z" fill="#071023"/>
<path fill-rule="evenodd" clip-rule="evenodd" d="M186.125 239.742H96.6394C94.8548 239.742 93.0383 241.177 92.5921 242.963L76.6581 303.656C76.1801 305.41 77.2636 306.877 79.0163 306.877H168.502C170.286 306.877 172.103 305.442 172.549 303.656L188.483 242.963C188.961 241.209 187.91 239.742 186.125 239.742Z" fill="url(#paint3_linear_1457_404)"/>
<path fill-rule="evenodd" clip-rule="evenodd" d="M90.6794 241.496L79.8761 282.702C66.9058 276.355 51.2586 266.181 34.8465 253.137C34.4004 247.268 33.8586 242.58 33.1894 239.104C34.496 236.488 35.9619 233.682 37.5234 230.716C22.3861 230.62 13.1762 227.367 9.83008 220.956C13.8773 209.092 19.5498 197.004 26.8158 184.63C31.9147 177.103 41.8575 172.67 56.708 171.362C58.4289 191.264 88.9585 190.243 81.7882 173.116C92.8464 176.083 102.247 181.6 109.928 189.605C116.524 205.903 120.572 217.289 122.038 223.731C114.867 228.77 108.047 232.023 101.642 233.49C101.355 234.894 101.1 236.488 100.941 238.306H94.7585C92.9739 238.274 91.1574 239.741 90.6794 241.496Z" fill="url(#paint4_linear_1457_404)"/>
<path fill-rule="evenodd" clip-rule="evenodd" d="M79.8757 282.702L90.6789 241.496C91.157 239.742 92.9734 238.274 94.7262 238.274H100.909H184.244C185.996 238.274 189.151 240.571 188.641 242.293C188.737 240.826 187.717 239.71 186.156 239.71H96.6383C94.8537 239.71 93.0372 241.145 92.591 242.931L76.657 303.624C76.3702 304.676 76.657 305.633 77.2943 306.207C75.8284 305.25 74.4262 303.4 74.7449 302.157L79.8757 282.702Z" fill="white"/>
<path fill-rule="evenodd" clip-rule="evenodd" d="M79.0473 306.845H168.533C168.851 306.845 169.202 306.781 169.521 306.685C167.736 311.31 162.892 310.608 161.012 310.608H54.8913C49.155 310.353 49.2825 306.334 49.2188 302.443H74.7132C74.6176 303.687 75.9242 305.314 77.2945 306.207C77.7407 306.621 78.3462 306.845 79.0473 306.845Z" fill="url(#paint5_linear_1457_404)"/>
<path fill-rule="evenodd" clip-rule="evenodd" d="M133.512 267.489C130.294 267.489 127.298 270.105 126.788 273.294C126.278 276.515 128.477 279.098 131.696 279.098C134.915 279.098 137.91 276.483 138.42 273.294C138.898 270.073 136.731 267.489 133.512 267.489Z" fill="white"/>
<path fill-rule="evenodd" clip-rule="evenodd" d="M30.5449 292.046C32.3295 286.593 33.6043 280.947 34.401 275.079C46.4471 279.736 60.246 284.264 77.6459 291.121L75.2877 300.115C48.9647 301.008 34.0504 298.297 30.5449 292.046Z" fill="#F59B1D"/>
<path fill-rule="evenodd" clip-rule="evenodd" d="M77.6459 291.153C60.214 284.264 46.447 279.767 34.4009 275.111C23.7888 270.997 14.5152 266.755 5.27344 260.631C5.65585 248.831 7.4086 237.381 12.3163 224.146C16.8097 228.451 25.2229 230.62 37.5877 230.684C34.0184 237.445 31.0866 243.281 28.8558 248.193C47.4349 263.597 65.3448 275.557 79.9404 282.67L77.6459 291.153Z" fill="#FAB688"/>
<path fill-rule="evenodd" clip-rule="evenodd" d="M119.68 225.261C121.019 229.949 122.262 234.287 123.409 238.273H100.91C101.069 236.455 101.324 234.861 101.611 233.457C107.348 232.15 113.371 229.407 119.68 225.261Z" fill="#FAB688"/>
<path fill-rule="evenodd" clip-rule="evenodd" d="M174.333 443.571C161.012 395.253 156.264 361.318 160.056 341.768C152.472 342.852 144.887 343.171 137.271 342.789C138.418 337.558 139.597 332.328 140.776 327.001C140.649 319.793 136.952 314.467 123.918 310.608H161.012C162.287 310.608 164.868 310.927 166.972 309.747C178.922 313.16 184.754 318.805 186.73 325.694C188.196 344.638 184.244 366.23 187.622 443.699C183.416 444.145 178.986 444.113 174.333 443.571Z" fill="url(#paint6_linear_1457_404)"/>
<path fill-rule="evenodd" clip-rule="evenodd" d="M160.439 310.64H161.013C162.288 310.64 164.869 310.959 166.972 309.779C178.923 313.192 184.755 318.837 186.731 325.726C188.197 344.671 184.245 366.262 187.623 443.731C185.137 443.986 182.556 444.082 179.879 443.986C172.995 417.068 156.647 351.017 175.067 322.537C170.733 317.944 165.857 313.989 160.439 310.64Z" fill="url(#paint7_linear_1457_404)"/>
<path fill-rule="evenodd" clip-rule="evenodd" d="M56.7405 171.553C59.0987 168.524 61.202 165.717 61.8075 163.74C61.3295 162.368 60.8196 160.646 60.3097 158.573C51.4185 152.545 50.2075 148.08 56.6767 145.178C57.9833 145.911 59.5767 148.144 61.5207 151.907C63.0503 151.843 64.2295 151.046 65.0262 149.547C63.1778 143.2 61.9987 138.034 61.4569 134.079C65.8229 127.573 76.0525 126.648 89.6283 128.402C90.2657 132.006 90.7756 135.833 91.1899 139.883C93.58 142.084 93.2613 150.281 91.0624 159.721C92.1778 165.079 88.8635 168.013 81.1195 168.492C80.9921 170.405 81.7569 172.829 81.8206 173.116C81.8206 173.116 81.8206 173.148 81.8525 173.18C88.8635 190.147 58.6525 191.2 56.7405 171.553Z" fill="#FAB688"/>
<path fill-rule="evenodd" clip-rule="evenodd" d="M89.5972 128.371C76.0533 126.616 65.8236 127.541 61.4258 134.048C61.9676 138.002 63.1786 143.169 64.9951 149.516C64.1984 151.015 63.0192 151.812 61.4896 151.876C59.5456 148.113 57.9522 145.848 56.6456 145.146C50.1764 148.049 51.4193 152.514 60.2786 158.542C60.7885 160.615 61.2984 162.337 61.7764 163.708C53.7775 161.922 47.1171 154.746 46.161 151.653C36.8556 133.282 47.2445 125.5 52.7896 122.662C55.2434 104.451 81.6621 120.557 94.8873 111.786C100.209 119.09 93.7082 128.211 89.5972 128.371Z" fill="#733E19"/>
<path fill-rule="evenodd" clip-rule="evenodd" d="M71.0508 168.236C74.7793 168.523 78.1255 168.619 81.0892 168.46C81.0255 169.767 81.3442 171.33 81.5672 172.287C76.787 172.159 73.2815 170.788 71.0508 168.236Z" fill="#ED7D57"/>
<path fill-rule="evenodd" clip-rule="evenodd" d="M112.002 339.345H31.2478C28.3797 339.345 26.0215 341.705 26.0215 344.607C26.0215 347.478 28.3797 349.87 31.2478 349.87H112.002C114.87 349.87 117.26 347.509 117.26 344.607C117.228 341.705 114.87 339.345 112.002 339.345Z" fill="#712C14"/>
<path fill-rule="evenodd" clip-rule="evenodd" d="M36.0589 438.819C39.9149 434.96 45.2369 432.536 51.1325 432.536H65.027H92.1148C97.9786 432.536 103.332 434.928 107.157 438.819C111.013 442.678 113.435 448.004 113.435 453.873V458.178H115.06V463.505H113.435H104.607H102.95V458.178H104.607V453.873C104.607 450.428 103.205 447.303 100.942 445.038C98.6797 442.774 95.5566 441.371 92.1148 441.371H65.027H51.1325C47.6908 441.371 44.5677 442.774 42.3051 445.038C40.0424 447.303 38.6402 450.428 38.6402 453.873V458.178H40.2974V463.505H38.6402H29.8128H28.1875V458.178H29.8128V453.873C29.8128 448.004 32.2029 442.646 36.0589 438.819Z" fill="#A14527"/>
<path d="M76.054 349.869H67.2266V432.536H76.054V349.869Z" fill="#A14527"/>
<path fill-rule="evenodd" clip-rule="evenodd" d="M43.3899 339.026C27.7745 333.413 25.6394 317.849 32.5229 294.344C38.1635 298.968 52.4404 300.882 75.3217 300.148L74.7799 302.189C74.748 302.285 74.748 302.381 74.748 302.477H49.2536C49.3173 306.368 49.1899 310.386 54.9261 310.641H123.952C136.986 314.468 140.683 319.795 140.811 327.034C132.557 363.967 125.195 397.837 115.189 444.625C111.811 446.506 107.19 446.379 101.326 444.178C96.6414 398.794 97.9161 365.785 105.182 345.182C85.87 345.245 65.2514 342.598 43.3899 339.026Z" fill="url(#paint8_linear_1457_404)"/>
<path fill-rule="evenodd" clip-rule="evenodd" d="M43.3899 339.026C27.7745 333.413 25.6394 317.849 32.5229 294.344C33.7338 295.332 35.3272 296.194 37.3031 296.927C31.6305 321.102 37.813 334.338 56.1371 335.614C77.5524 338.803 95.303 340.334 109.389 340.206C103.174 380.487 102.123 415.634 106.202 445.582C104.704 445.294 103.079 444.816 101.358 444.178C96.6733 398.794 97.948 365.785 105.214 345.182C85.87 345.245 65.2514 342.598 43.3899 339.026Z" fill="url(#paint9_linear_1457_404)"/>
<path fill-rule="evenodd" clip-rule="evenodd" d="M186.191 443.858C186.573 445.294 187.211 446.697 188.071 447.973C183.896 448.355 185.522 453.745 174.24 448.802C174.718 447.398 175.005 445.676 175.037 443.667C178.925 444.05 182.653 444.113 186.191 443.858Z" fill="#FAB688"/>
<path fill-rule="evenodd" clip-rule="evenodd" d="M115.126 469.085C107.445 465.896 106.298 460.729 102.06 458.752C97.7894 456.774 97.3114 453.234 101.486 449.375C104.545 451.831 108.37 454.861 110.409 453.266C111.748 452.213 116.337 452.277 117.229 453.84C121.212 463.121 126.757 460.187 127.841 464.397C127.968 469.978 119.97 471.062 115.126 469.085Z" fill="#071023"/>
<path fill-rule="evenodd" clip-rule="evenodd" d="M113.815 445.23C113.752 447.686 114.07 450.173 114.835 452.661C113.178 452.406 111.202 452.629 110.406 453.267C108.525 454.734 105.115 452.278 102.184 449.918C102.662 448.61 102.98 446.888 103.14 444.783C107.41 446.123 110.979 446.282 113.815 445.23Z" fill="#FAB688"/>
<g opacity="0.5">
<path fill-rule="evenodd" clip-rule="evenodd" d="M37.5559 230.716C39.5317 227.112 41.635 222.264 43.8658 216.204C42.6548 223.285 42.7185 228.388 40.8064 234.224C42.368 242.453 43.0053 250.841 42.846 259.324C40.2009 257.347 37.5559 255.274 34.879 253.137C34.4328 247.269 33.8911 242.58 33.2218 239.104C34.5284 236.457 35.9625 233.682 37.5559 230.716ZM106.232 232.119C104.67 232.661 103.14 233.108 101.611 233.459C102.184 224.433 102.567 217.002 102.758 211.102C104.479 219.808 105.626 226.825 106.232 232.119ZM30.5449 292.047C32.3295 286.593 33.6043 280.948 34.401 275.079C36.6317 275.941 38.9262 276.802 41.2845 277.663C40.3284 284.073 38.99 290.484 37.2691 296.863C33.8911 295.651 31.6603 294.024 30.5449 292.047Z" fill="#EA7924"/>
</g>
<g opacity="0.67">
<path fill-rule="evenodd" clip-rule="evenodd" d="M224.972 43.1514H296.197C298.046 43.1514 299.607 44.6822 299.607 46.532V82.4439C279.403 85.0591 263.469 101.038 260.824 121.194H224.972C223.124 121.194 221.594 119.663 221.594 117.813V46.532C221.562 44.6822 223.092 43.1514 224.972 43.1514Z" fill="white"/>
</g>
<g opacity="0.67">
<path fill-rule="evenodd" clip-rule="evenodd" d="M314.715 43.1514H385.94C387.788 43.1514 389.35 44.6822 389.35 46.532V117.813C389.35 119.663 387.82 121.194 385.94 121.194H350.056C347.411 101.038 331.477 85.0591 311.305 82.4439V46.532C311.337 44.6822 312.834 43.1514 314.715 43.1514Z" fill="white"/>
</g>
<g opacity="0.67">
<path fill-rule="evenodd" clip-rule="evenodd" d="M221.562 207.657V136.375C221.562 134.526 223.092 132.963 224.941 132.963H260.824C263.437 153.119 279.403 169.098 299.576 171.745V207.657C299.576 209.507 298.046 211.038 296.166 211.038H224.972C223.092 211.038 221.562 209.507 221.562 207.657Z" fill="white"/>
</g>
<g opacity="0.67">
<path fill-rule="evenodd" clip-rule="evenodd" d="M385.939 211.038H314.714C312.834 211.038 311.336 209.507 311.336 207.657V171.745C331.477 169.13 347.442 153.151 350.088 132.963H385.971C387.819 132.963 389.381 134.494 389.381 136.375V207.657C389.349 209.507 387.819 211.038 385.939 211.038Z" fill="white"/>
</g>
<path opacity="0.67" fill-rule="evenodd" clip-rule="evenodd" d="M305.44 85.8564C328.194 85.8564 346.677 104.323 346.677 127.094C346.677 149.866 328.225 168.332 305.44 168.332C282.686 168.332 264.234 149.866 264.234 127.094C264.234 104.323 282.686 85.8564 305.44 85.8564ZM305.44 92.0118C286.064 92.0118 270.385 107.735 270.385 127.094C270.385 146.486 286.064 162.177 305.44 162.177C324.816 162.177 340.495 146.454 340.495 127.094C340.527 107.703 324.816 92.0118 305.44 92.0118Z" fill="white"/>
<g opacity="0.67">
<path fill-rule="evenodd" clip-rule="evenodd" d="M308.817 115.007C307.701 113.668 306.554 112.424 305.439 111.276C304.323 112.424 303.176 113.668 302.061 115.007C304.323 114.912 306.586 114.912 308.817 115.007ZM311.781 115.199C310.219 113.221 308.594 111.403 307 109.777C308.498 108.374 309.932 107.162 311.366 106.141C315.668 103.079 319.365 101.867 321.468 103.303C323.572 104.738 323.89 108.629 322.648 113.764C322.424 114.72 322.138 115.709 321.787 116.73C318.76 115.996 315.382 115.486 311.781 115.199ZM318.345 124.831C319.397 122.757 320.321 120.716 321.054 118.803C318.76 118.26 316.242 117.846 313.565 117.559C315.286 119.887 316.911 122.311 318.345 124.831ZM319.62 127.095C321.054 124.416 322.233 121.801 323.157 119.345C324.209 119.632 325.165 119.951 326.089 120.302C331.029 122.12 334.088 124.543 334.088 127.095C334.088 129.646 331.029 132.07 326.089 133.888C325.165 134.239 324.177 134.558 323.157 134.845C322.233 132.389 321.054 129.774 319.62 127.095ZM323.89 136.918C324.209 137.971 324.528 138.959 324.751 139.948C326.217 145.976 325.643 150.728 322.679 152.705C319.748 154.683 315.127 153.439 310.092 149.835C308.594 148.75 307.032 147.475 305.439 145.976C303.877 147.475 302.316 148.782 300.818 149.835C295.942 153.343 291.481 154.619 288.517 152.897H288.485L288.198 152.705C285.266 150.728 284.693 145.976 286.127 139.948C286.382 138.991 286.637 137.971 286.987 136.918C285.936 136.631 284.948 136.28 283.992 135.929C278.16 133.761 274.559 130.635 274.559 127.095C274.559 123.555 278.16 120.429 283.992 118.26C284.916 117.91 285.936 117.591 286.987 117.304C286.637 116.251 286.35 115.263 286.127 114.274C284.661 108.246 285.234 103.494 288.198 101.517C291.13 99.5392 295.751 100.783 300.786 104.387C302.284 105.471 303.845 106.779 305.407 108.278C307 106.779 308.53 105.471 310.06 104.387C315.095 100.783 319.716 99.5073 322.648 101.517C325.579 103.494 326.153 108.246 324.719 114.274C324.464 115.231 324.177 116.251 323.859 117.304C324.91 117.591 325.898 117.942 326.854 118.26C332.686 120.429 336.287 123.555 336.287 127.095C336.287 130.635 332.686 133.761 326.854 135.929C325.93 136.28 324.942 136.599 323.89 136.918ZM303.909 144.413C302.316 142.786 300.69 140.968 299.129 138.991C295.528 138.704 292.118 138.194 289.122 137.46C288.804 138.481 288.517 139.47 288.262 140.426C287.019 145.561 287.306 149.452 289.441 150.855C291.544 152.259 295.273 151.079 299.543 148.017C300.945 147.028 302.411 145.816 303.909 144.413ZM297.312 136.663C295.592 134.303 293.998 131.879 292.532 129.359C291.481 131.432 290.556 133.474 289.823 135.419C292.15 135.929 294.635 136.376 297.312 136.663ZM291.289 127.095C289.855 124.416 288.676 121.801 287.752 119.345C286.7 119.632 285.712 119.951 284.82 120.302C279.849 122.12 276.821 124.543 276.821 127.095C276.821 129.646 279.881 132.07 284.82 133.888C285.744 134.239 286.732 134.558 287.752 134.845C288.644 132.389 289.855 129.774 291.289 127.095ZM322.648 140.426C322.424 139.47 322.138 138.481 321.787 137.46C318.76 138.194 315.382 138.704 311.781 138.991C310.219 140.968 308.594 142.786 307 144.413C308.466 145.816 309.932 147.028 311.366 148.049C315.668 151.111 319.365 152.322 321.468 150.887C323.572 149.452 323.89 145.561 322.648 140.426ZM321.054 135.419C320.321 133.474 319.429 131.464 318.345 129.359C316.879 131.879 315.286 134.303 313.565 136.663C316.242 136.376 318.76 135.929 321.054 135.419ZM317.134 127.095C315.254 130.476 313.023 133.824 310.633 136.886C307.16 137.109 303.654 137.109 300.212 136.886C297.822 133.793 295.655 130.508 293.743 127.095C295.655 123.682 297.822 120.397 300.212 117.304C303.686 117.08 307.192 117.08 310.633 117.304C313.055 120.397 315.254 123.682 317.134 127.095ZM303.909 109.777C302.316 111.403 300.69 113.221 299.129 115.199C295.528 115.486 292.118 116.028 289.122 116.73C288.804 115.709 288.517 114.72 288.262 113.764C287.019 108.629 287.306 104.738 289.441 103.303C291.544 101.867 295.273 103.079 299.543 106.141C300.945 107.162 302.411 108.374 303.909 109.777ZM289.855 118.803C290.588 120.748 291.512 122.757 292.564 124.831C294.03 122.311 295.623 119.855 297.344 117.527C294.635 117.814 292.15 118.26 289.855 118.803ZM302.061 139.182C303.176 140.522 304.323 141.766 305.439 142.914C306.586 141.766 307.701 140.522 308.817 139.182C306.586 139.278 304.323 139.278 302.061 139.182Z" fill="white"/>
</g>
<g opacity="0.67">
<path fill-rule="evenodd" clip-rule="evenodd" d="M305.441 132.931C308.66 132.931 311.273 130.315 311.273 127.094C311.273 123.873 308.66 121.258 305.441 121.258C302.223 121.258 299.609 123.873 299.609 127.094C299.641 130.315 302.254 132.931 305.441 132.931Z" fill="white"/>
</g>
<g opacity="0.67">
<path fill-rule="evenodd" clip-rule="evenodd" d="M229.243 233.618V236.329H226.502H226.343H226.247C226.088 236.361 225.865 236.393 225.737 236.456L224.781 233.905C225.323 233.682 225.928 233.586 226.534 233.586H229.243V233.618ZM222.072 236.361C221.722 237.062 221.562 237.796 221.562 238.593V239.646H224.271V238.593V238.402V238.306C224.303 238.019 224.367 237.828 224.494 237.573L222.072 236.361ZM221.562 242.357H224.271V245.099H221.562V242.357ZM221.562 247.81H224.271V250.521H221.562V247.81ZM221.562 253.264H224.271V255.975H221.562V253.264ZM221.562 258.686H224.271V261.397H221.562V258.686ZM221.562 264.14H224.271V266.851H221.562V264.14ZM221.562 269.562H224.271V272.304H221.562V269.562ZM221.562 275.015H224.271V277.726H221.562V275.015ZM221.562 280.469H224.271V283.212H221.562V280.469ZM221.562 285.923H224.271V288.634H221.562V285.923ZM221.562 291.377H224.271V294.087H221.562V291.377ZM221.562 296.798H224.271V299.509H221.562V296.798ZM222.519 302.89C223.283 303.942 224.367 304.612 225.61 304.835L226.088 302.156C225.833 302.093 225.642 302.029 225.419 301.901C225.291 301.837 225.195 301.774 225.1 301.678C224.972 301.55 224.877 301.455 224.749 301.327L224.686 301.232L222.519 302.89ZM228.605 304.931V302.22H231.314V304.931H228.605ZM234.023 304.931V302.22H236.732V304.931H234.023ZM239.472 304.931V302.22H242.213V304.931H239.472ZM244.922 304.931V302.22H247.631V304.931H244.922ZM250.339 304.931V302.22H253.048V304.931H250.339ZM255.789 304.931V302.22H258.529V304.931H255.789ZM261.238 304.931V302.22H263.947V304.931H261.238ZM266.656 304.931V302.22H269.396V304.931H266.656ZM272.105 304.931V302.22H274.814V304.931H272.105ZM277.555 304.931V302.22H280.295V304.931H277.555ZM283.004 304.931V302.22H285.713V304.931H283.004ZM288.422 304.931V302.22H291.13V304.931H288.422ZM294.094 304.867C295.369 304.612 296.421 303.942 297.217 302.922L295.018 301.295L294.955 301.359C294.827 301.487 294.732 301.582 294.604 301.71C294.477 301.806 294.381 301.869 294.285 301.933C294.062 302.061 293.839 302.125 293.584 302.188L294.094 304.867ZM298.205 299.541H295.496V296.83H298.205V299.541ZM298.205 294.119H295.496V291.408H298.205V294.119ZM298.205 288.666H295.496V285.955H298.205V288.666ZM298.205 283.212H295.496V280.501H298.205V283.212ZM298.205 277.79H295.496V275.047H298.205V277.79ZM298.205 272.336H295.496V269.625H298.205V272.336ZM298.205 266.882H295.496V264.14H298.205V266.882ZM298.205 261.429H295.496V258.718H298.205V261.429ZM298.205 255.975H295.496V253.264H298.205V255.975ZM298.205 250.553H295.496V247.842H298.205V250.553ZM298.205 245.099H295.496V242.388H298.205V245.099ZM298.205 239.678H295.496V238.593V238.402V238.306C295.465 238.019 295.401 237.86 295.273 237.573L297.727 236.393C298.046 237.094 298.237 237.796 298.237 238.561V239.678H298.205ZM294.987 233.937C294.572 233.714 293.68 233.618 293.234 233.618H291.832V236.329H293.234H293.393H293.489C293.648 236.361 293.903 236.393 294.031 236.456L294.987 233.937ZM289.091 233.618V236.329H286.382V233.618H289.091ZM283.641 233.618V236.329H280.933V233.618H283.641ZM278.224 233.618V236.329H275.483V233.618H278.224ZM272.774 233.618V236.329H270.066V233.618H272.774ZM267.357 233.618V236.329H264.616V233.618H267.357ZM261.907 233.618V236.329H259.199V233.618H261.907ZM256.458 233.618V236.329H253.749V233.618H256.458ZM251.009 233.618V236.329H248.3V233.618H251.009ZM245.559 233.618V236.329H242.85V233.618H245.559ZM240.142 233.618V236.329H237.433V233.618H240.142ZM234.692 233.618V236.329H231.983V233.618H234.692Z" fill="white"/>
</g>
<g opacity="0.67">
<path fill-rule="evenodd" clip-rule="evenodd" d="M224.303 329.012H386.575C388.073 329.012 389.316 330.256 389.316 331.755V378.574C389.316 380.073 388.073 381.317 386.575 381.317H224.303C222.805 381.317 221.562 380.073 221.562 378.574V331.755C221.562 330.256 222.805 329.012 224.303 329.012Z" fill="white"/>
</g>
<g opacity="0.67">
<path fill-rule="evenodd" clip-rule="evenodd" d="M322.394 257.315H385.716C387.692 257.315 389.317 258.942 389.317 260.919C389.317 262.897 387.692 264.523 385.716 264.523H322.394C320.418 264.523 318.793 262.897 318.793 260.919C318.793 258.942 320.418 257.315 322.394 257.315ZM322.394 295.077H385.716C387.692 295.077 389.317 296.704 389.317 298.681C389.317 300.658 387.692 302.285 385.716 302.285H322.394C320.418 302.285 318.793 300.658 318.793 298.681C318.793 296.704 320.418 295.077 322.394 295.077ZM322.394 276.196H385.716C387.692 276.196 389.317 277.823 389.317 279.8C389.317 281.778 387.692 283.404 385.716 283.404H322.394C320.418 283.404 318.793 281.778 318.793 279.8C318.793 277.823 320.418 276.196 322.394 276.196Z" fill="white"/>
</g>
<defs>
<linearGradient id="paint0_linear_1457_404" x1="207.58" y1="209.89" x2="403.337" y2="209.89" gradientUnits="userSpaceOnUse">
<stop stop-color="#AA80F9"/>
<stop offset="0.9964" stop-color="#6165D7"/>
</linearGradient>
<linearGradient id="paint1_linear_1457_404" x1="388.522" y1="217.949" x2="514.747" y2="217.949" gradientUnits="userSpaceOnUse">
<stop stop-color="#AA80F9"/>
<stop offset="0.9964" stop-color="#6165D7"/>
</linearGradient>
<linearGradient id="paint2_linear_1457_404" x1="445.254" y1="194.248" x2="423.337" y2="194.248" gradientUnits="userSpaceOnUse">
<stop stop-color="#294698"/>
<stop offset="1" stop-color="#0E4BA6"/>
</linearGradient>
<linearGradient id="paint3_linear_1457_404" x1="188.645" y1="273.369" x2="76.6478" y2="273.369" gradientUnits="userSpaceOnUse">
<stop stop-color="#294698"/>
<stop offset="1" stop-color="#0E4BA6"/>
</linearGradient>
<linearGradient id="paint4_linear_1457_404" x1="68.2304" y1="171.528" x2="69.5756" y2="282.914" gradientUnits="userSpaceOnUse">
<stop offset="0.317708" stop-color="#FFCF6C"/>
<stop offset="1" stop-color="#F8924F"/>
</linearGradient>
<linearGradient id="paint5_linear_1457_404" x1="169.571" y1="306.552" x2="49.3292" y2="306.552" gradientUnits="userSpaceOnUse">
<stop stop-color="#294698"/>
<stop offset="1" stop-color="#0E4BA6"/>
</linearGradient>
<linearGradient id="paint6_linear_1457_404" x1="155.77" y1="309.747" x2="155.77" y2="444.008" gradientUnits="userSpaceOnUse">
<stop stop-color="#4477FB"/>
<stop offset="1" stop-color="#204DC4"/>
</linearGradient>
<linearGradient id="paint7_linear_1457_404" x1="174.031" y1="309.779" x2="174.031" y2="444.023" gradientUnits="userSpaceOnUse">
<stop stop-color="#4477FB"/>
<stop offset="1" stop-color="#204DC4"/>
</linearGradient>
<linearGradient id="paint8_linear_1457_404" x1="84.8057" y1="294.344" x2="84.8057" y2="445.94" gradientUnits="userSpaceOnUse">
<stop stop-color="#4477FB"/>
<stop offset="1" stop-color="#204DC4"/>
</linearGradient>
<linearGradient id="paint9_linear_1457_404" x1="69.0947" y1="294.344" x2="69.0947" y2="445.582" gradientUnits="userSpaceOnUse">
<stop stop-color="#4477FB"/>
<stop offset="1" stop-color="#204DC4"/>
</linearGradient>
</defs>
</svg>
